<svg height="40" viewBox="0 0 40 40" width="40" xmlns="http://www.w3.org/2000/svg" xmlns:xlink="http://www.w3.org/1999/xlink"><defs><circle id="a" cx="20" cy="20" r="20"/><circle id="b" cx="7.5" cy="7.5" r="7.5"/><path id="c" d="m1.05970512 9.88536122c.15069197-.32137476.31062574-.63727094.47944497-.9473207 2.90446931-5.33428585 8.4390227-8.93804052 14.78897491-8.93804052 6.2424048 0 11.6967972 3.48271677 14.6391437 8.66850275.2033211.35834644.394647.72482511.5734089 1.09884878-3.6687335 4.34677147-9.1572869 7.10764847-15.2906776 7.10764847-6.0777011 0-11.52222154-2.7109684-15.19029488-6.98963878z"/><mask id="d" fill="#fff"><use fill="#fff" fill-rule="evenodd" xlink:href="#a"/></mask><mask id="e" fill="#fff"><use fill="#fff" fill-rule="evenodd" xlink:href="#b"/></mask><mask id="f" fill="#fff"><use fill="#fff" fill-rule="evenodd" xlink:href="#c"/></mask></defs><g fill="none" fill-rule="evenodd"><use fill="#d5edec" xlink:href="#a"/><g fill="#d5edec" mask="url(#d)"><path d="m0 0h40v41h-40z"/></g><g fill="#809e9d" transform="translate(12.5 5.625)"><use opacity=".59894" xlink:href="#b"/><g mask="url(#e)"><path d="m0 0h15v15h-15z"/></g></g><g transform="translate(3.75 23.125)"><use fill="#d5edec" xlink:href="#c"/><g fill="#809e9d" mask="url(#f)"><path d="m0 0h33v17h-33z"/></g></g></g></svg>